<svg width="114" height="10" viewBox="0 0 114 10" fill="none" xmlns="http://www.w3.org/2000/svg">
<path d="M0.761719 9V0.46875H3.75C4.78516 0.46875 5.57031 0.667969 6.10547 1.06641C6.64062 1.46094 6.9082 2.04102 6.9082 2.80664C6.9082 3.22461 6.80078 3.59375 6.58594 3.91406C6.37109 4.23047 6.07227 4.46289 5.68945 4.61133C6.12695 4.7207 6.4707 4.94141 6.7207 5.27344C6.97461 5.60547 7.10156 6.01172 7.10156 6.49219C7.10156 7.3125 6.83984 7.93359 6.31641 8.35547C5.79297 8.77734 5.04688 8.99219 4.07812 9H0.761719ZM2.51953 5.28516V7.58789H4.02539C4.43945 7.58789 4.76172 7.49023 4.99219 7.29492C5.22656 7.0957 5.34375 6.82227 5.34375 6.47461C5.34375 5.69336 4.93945 5.29688 4.13086 5.28516H2.51953ZM2.51953 4.04297H3.82031C4.70703 4.02734 5.15039 3.67383 5.15039 2.98242C5.15039 2.5957 5.03711 2.31836 4.81055 2.15039C4.58789 1.97852 4.23438 1.89258 3.75 1.89258H2.51953V4.04297Z" fill="#4A4A4A"/>
<path d="M19.7536 4.92773C19.7536 5.76758 19.6052 6.50391 19.3083 7.13672C19.0114 7.76953 18.5856 8.25781 18.0309 8.60156C17.4802 8.94531 16.8473 9.11719 16.1325 9.11719C15.4255 9.11719 14.7946 8.94727 14.2399 8.60742C13.6852 8.26758 13.2555 7.7832 12.9509 7.1543C12.6462 6.52148 12.4919 5.79492 12.488 4.97461V4.55273C12.488 3.71289 12.6384 2.97461 12.9391 2.33789C13.2438 1.69727 13.6716 1.20703 14.2223 0.867188C14.777 0.523438 15.4098 0.351562 16.1208 0.351562C16.8317 0.351562 17.4626 0.523438 18.0134 0.867188C18.568 1.20703 18.9958 1.69727 19.2966 2.33789C19.6012 2.97461 19.7536 3.71094 19.7536 4.54688V4.92773ZM17.9723 4.54102C17.9723 3.64648 17.8122 2.9668 17.4919 2.50195C17.1716 2.03711 16.7145 1.80469 16.1208 1.80469C15.5309 1.80469 15.0759 2.03516 14.7555 2.49609C14.4352 2.95312 14.2731 3.625 14.2692 4.51172V4.92773C14.2692 5.79883 14.4294 6.47461 14.7497 6.95508C15.07 7.43555 15.5309 7.67578 16.1325 7.67578C16.7223 7.67578 17.1755 7.44531 17.4919 6.98438C17.8083 6.51953 17.9684 5.84375 17.9723 4.95703V4.54102Z" fill="#4A4A4A"/>
<path d="M32.3587 4.92773C32.3587 5.76758 32.2103 6.50391 31.9134 7.13672C31.6166 7.76953 31.1908 8.25781 30.6361 8.60156C30.0853 8.94531 29.4525 9.11719 28.7377 9.11719C28.0306 9.11719 27.3998 8.94727 26.8451 8.60742C26.2904 8.26758 25.8607 7.7832 25.556 7.1543C25.2513 6.52148 25.097 5.79492 25.0931 4.97461V4.55273C25.0931 3.71289 25.2435 2.97461 25.5443 2.33789C25.849 1.69727 26.2767 1.20703 26.8275 0.867188C27.3822 0.523438 28.015 0.351562 28.7259 0.351562C29.4369 0.351562 30.0677 0.523438 30.6185 0.867188C31.1732 1.20703 31.6009 1.69727 31.9017 2.33789C32.2064 2.97461 32.3587 3.71094 32.3587 4.54688V4.92773ZM30.5775 4.54102C30.5775 3.64648 30.4173 2.9668 30.097 2.50195C29.7767 2.03711 29.3197 1.80469 28.7259 1.80469C28.1361 1.80469 27.681 2.03516 27.3607 2.49609C27.0404 2.95312 26.8783 3.625 26.8744 4.51172V4.92773C26.8744 5.79883 27.0345 6.47461 27.3548 6.95508C27.6752 7.43555 28.1361 7.67578 28.7377 7.67578C29.3275 7.67578 29.7806 7.44531 30.097 6.98438C30.4134 6.51953 30.5736 5.84375 30.5775 4.95703V4.54102Z" fill="#4A4A4A"/>
<path d="M40.628 5.57812L39.7139 6.5625V9H37.9561V0.46875H39.7139V4.33594L40.4873 3.27539L42.6612 0.46875H44.8233L41.794 4.25977L44.9112 9H42.8194L40.628 5.57812Z" fill="#4A4A4A"/>
<path d="M52.5652 5.57812L51.6511 6.5625V9H49.8933V0.46875H51.6511V4.33594L52.4245 3.27539L54.5984 0.46875H56.7605L53.7312 4.25977L56.8484 9H54.7566L52.5652 5.57812Z" fill="#4A4A4A"/>
<path d="M66.9633 5.30273H63.5883V7.58789H67.5492V9H61.8305V0.46875H67.5375V1.89258H63.5883V3.92578H66.9633V5.30273Z" fill="#4A4A4A"/>
<path d="M78.0333 5.30273H74.6583V7.58789H78.6192V9H72.9005V0.46875H78.6075V1.89258H74.6583V3.92578H78.0333V5.30273Z" fill="#4A4A4A"/>
<path d="M85.7283 5.99414V9H83.9705V0.46875H87.2986C87.9392 0.46875 88.5017 0.585938 88.9861 0.820312C89.4744 1.05469 89.8494 1.38867 90.1111 1.82227C90.3728 2.25195 90.5037 2.74219 90.5037 3.29297C90.5037 4.12891 90.2166 4.78906 89.6423 5.27344C89.072 5.75391 88.281 5.99414 87.2693 5.99414H85.7283ZM85.7283 4.57031H87.2986C87.7634 4.57031 88.117 4.46094 88.3591 4.24219C88.6052 4.02344 88.7283 3.71094 88.7283 3.30469C88.7283 2.88672 88.6052 2.54883 88.3591 2.29102C88.113 2.0332 87.7732 1.90039 87.3396 1.89258H85.7283V4.57031Z" fill="#4A4A4A"/>
<path d="M101.169 5.30273H97.7944V7.58789H101.755V9H96.0366V0.46875H101.744V1.89258H97.7944V3.92578H101.169V5.30273Z" fill="#4A4A4A"/>
<path d="M110.265 5.87695H108.864V9H107.107V0.46875H110.276C111.284 0.46875 112.062 0.693359 112.609 1.14258C113.155 1.5918 113.429 2.22656 113.429 3.04688C113.429 3.62891 113.302 4.11523 113.048 4.50586C112.798 4.89258 112.417 5.20117 111.905 5.43164L113.751 8.91797V9H111.864L110.265 5.87695ZM108.864 4.45312H110.282C110.724 4.45312 111.066 4.3418 111.308 4.11914C111.55 3.89258 111.671 3.58203 111.671 3.1875C111.671 2.78516 111.556 2.46875 111.325 2.23828C111.099 2.00781 110.749 1.89258 110.276 1.89258H108.864V4.45312Z" fill="#4A4A4A"/>
</svg>
